<svg width="64" height="64" viewBox="0 0 64 64" xmlns="http://www.w3.org/2000/svg">
  <defs>
    <linearGradient id="gold" x1="0" y1="0" x2="0" y2="1">
      <stop offset="0%" stop-color="#FCE57A"/>
      <stop offset="45%" stop-color="#F2C53D"/>
      <stop offset="100%" stop-color="#D89A1E"/>
    </linearGradient>
    <linearGradient id="bg" x1="0" y1="0" x2="1" y2="1">
      <stop offset="0%" stop-color="#142a52"/>
      <stop offset="100%" stop-color="#0a1530"/>
    </linearGradient>
  </defs>

  <!-- Fondo redondeado azul marino -->
  <rect width="64" height="64" rx="14" fill="url(#bg)"/>

  <!-- Copa -->
  <g fill="url(#gold)" stroke="#B87E15" stroke-width="0.8">
    <!-- Asas -->
    <path d="M19 20 C12 20 12 31 21 32 L21 28 C16 27 16 23 19 23 Z"/>
    <path d="M45 20 C52 20 52 31 43 32 L43 28 C48 27 48 23 45 23 Z"/>
    <!-- Copa principal -->
    <path d="M21 17 L43 17 L41 33 C41 40 36 43 32 43 C28 43 23 40 23 33 Z"/>
    <!-- Tallo -->
    <rect x="29" y="43" width="6" height="6"/>
    <!-- Base -->
    <path d="M24 49 L40 49 L42 54 L22 54 Z"/>
  </g>

  <!-- Brillo en la copa -->
  <path d="M27 20 L30 20 L28 33 C28 35 27 36 26 36 Z" fill="#FFF3C4" opacity="0.55"/>
</svg>
